<?xml version="1.0" encoding="UTF-8" standalone="no"?>
<!DOCTYPE svg PUBLIC "-//W3C//DTD SVG 1.1//EN"
 "http://www.w3.org/Graphics/SVG/1.1/DTD/svg11.dtd">
<!-- Generated by graphviz version 2.38.0 (20140413.2041)
 -->
<!-- Title: G Pages: 1 -->
<svg width="740pt" height="207pt"
 viewBox="0.00 0.00 740.00 207.00" xmlns="http://www.w3.org/2000/svg" xmlns:xlink="http://www.w3.org/1999/xlink">
<g id="graph0" class="graph" transform="scale(1 1) rotate(0) translate(4 203)">
<title>G</title>
<polygon fill="white" stroke="none" points="-4,4 -4,-203 736,-203 736,4 -4,4"/>
<g id="clust1" class="cluster"><title>cluster_3</title>
</g>
<g id="clust2" class="cluster"><title>cluster_1</title>
<polygon fill="none" stroke="black" stroke-dasharray="1,5" points="8,-116 8,-191 628,-191 628,-116 8,-116"/>
<text text-anchor="middle" x="318" y="-175.8" font-family="source sans pro bold" font-size="14.00">Query 1</text>
</g>
<g id="clust3" class="cluster"><title>cluster_2</title>
<polygon fill="none" stroke="black" stroke-dasharray="1,5" points="462,-8 462,-83 724,-83 724,-8 462,-8"/>
<text text-anchor="middle" x="593" y="-67.8" font-family="source sans pro bold" font-size="14.00">Query 2</text>
</g>
<!-- Topic -->
<g id="node1" class="node"><title>Topic</title>
<polygon fill="lightgrey" stroke="black" points="419.5,-52 365.5,-52 365.5,-16 419.5,-16 419.5,-52"/>
<text text-anchor="middle" x="392.5" y="-30.3" font-family="source sans pro light" font-size="14.00">Topic</text>
</g>
<!-- Map -->
<g id="node8" class="node"><title>Map</title>
<path fill="none" stroke="black" d="M512,-52C512,-52 482,-52 482,-52 476,-52 470,-46 470,-40 470,-40 470,-28 470,-28 470,-22 476,-16 482,-16 482,-16 512,-16 512,-16 518,-16 524,-22 524,-28 524,-28 524,-40 524,-40 524,-46 518,-52 512,-52"/>
<text text-anchor="middle" x="497" y="-30.3" font-family="source sans pro light" font-size="14.00">Map</text>
</g>
<!-- Topic&#45;&gt;Map -->
<g id="edge7" class="edge"><title>Topic&#45;&gt;Map</title>
<path fill="none" stroke="black" d="M419.683,-34C419.683,-34 459.953,-34 459.953,-34"/>
<polygon fill="black" stroke="black" points="459.953,-37.5001 469.953,-34 459.953,-30.5001 459.953,-37.5001"/>
</g>
<!-- External Input -->
<g id="node2" class="node"><title>External Input</title>
<path fill="none" stroke="black" d="M121,-160C121,-160 28,-160 28,-160 22,-160 16,-154 16,-148 16,-148 16,-136 16,-136 16,-130 22,-124 28,-124 28,-124 121,-124 121,-124 127,-124 133,-130 133,-136 133,-136 133,-148 133,-148 133,-154 127,-160 121,-160"/>
<text text-anchor="middle" x="74.5" y="-138.3" font-family="source sans pro light" font-size="14.00">External Input</text>
</g>
<!-- Parse -->
<g id="node3" class="node"><title>Parse</title>
<path fill="none" stroke="black" d="M213,-160C213,-160 181,-160 181,-160 175,-160 169,-154 169,-148 169,-148 169,-136 169,-136 169,-130 175,-124 181,-124 181,-124 213,-124 213,-124 219,-124 225,-130 225,-136 225,-136 225,-148 225,-148 225,-154 219,-160 213,-160"/>
<text text-anchor="middle" x="197" y="-138.3" font-family="source sans pro light" font-size="14.00">Parse</text>
</g>
<!-- External Input&#45;&gt;Parse -->
<g id="edge1" class="edge"><title>External Input&#45;&gt;Parse</title>
<path fill="none" stroke="black" d="M133.238,-142C133.238,-142 158.823,-142 158.823,-142"/>
<polygon fill="black" stroke="black" points="158.823,-145.5 168.823,-142 158.823,-138.5 158.823,-145.5"/>
</g>
<!-- Filter -->
<g id="node4" class="node"><title>Filter</title>
<path fill="none" stroke="black" d="M303,-160C303,-160 273,-160 273,-160 267,-160 261,-154 261,-148 261,-148 261,-136 261,-136 261,-130 267,-124 273,-124 273,-124 303,-124 303,-124 309,-124 315,-130 315,-136 315,-136 315,-148 315,-148 315,-154 309,-160 303,-160"/>
<text text-anchor="middle" x="288" y="-138.3" font-family="source sans pro light" font-size="14.00">Filter</text>
</g>
<!-- Parse&#45;&gt;Filter -->
<g id="edge2" class="edge"><title>Parse&#45;&gt;Filter</title>
<path fill="none" stroke="black" d="M225.294,-142C225.294,-142 250.968,-142 250.968,-142"/>
<polygon fill="black" stroke="black" points="250.968,-145.5 260.968,-142 250.968,-138.5 250.968,-145.5"/>
</g>
<!-- Filter&#45;&gt;Topic -->
<g id="edge3" class="edge"><title>Filter&#45;&gt;Topic</title>
<path fill="none" stroke="black" d="M288,-123.679C288,-92.8664 288,-34 288,-34 288,-34 355.317,-34 355.317,-34"/>
<polygon fill="black" stroke="black" points="355.317,-37.5001 365.317,-34 355.317,-30.5001 355.317,-37.5001"/>
</g>
<!-- Group By -->
<g id="node5" class="node"><title>Group By</title>
<path fill="none" stroke="black" d="M422,-160C422,-160 363,-160 363,-160 357,-160 351,-154 351,-148 351,-148 351,-136 351,-136 351,-130 357,-124 363,-124 363,-124 422,-124 422,-124 428,-124 434,-130 434,-136 434,-136 434,-148 434,-148 434,-154 428,-160 422,-160"/>
<text text-anchor="middle" x="392.5" y="-138.3" font-family="source sans pro light" font-size="14.00">Group By</text>
</g>
<!-- Filter&#45;&gt;Group By -->
<g id="edge4" class="edge"><title>Filter&#45;&gt;Group By</title>
<path fill="none" stroke="black" d="M315.183,-142C315.183,-142 340.863,-142 340.863,-142"/>
<polygon fill="black" stroke="black" points="340.863,-145.5 350.863,-142 340.863,-138.5 340.863,-145.5"/>
</g>
<!-- some1 -->
<g id="node6" class="node"><title>some1</title>
<path fill="none" stroke="black" d="M512,-160C512,-160 482,-160 482,-160 476,-160 470,-154 470,-148 470,-148 470,-136 470,-136 470,-130 476,-124 482,-124 482,-124 512,-124 512,-124 518,-124 524,-130 524,-136 524,-136 524,-148 524,-148 524,-154 518,-160 512,-160"/>
<text text-anchor="middle" x="497" y="-138.3" font-family="source sans pro light" font-size="14.00">...</text>
</g>
<!-- Group By&#45;&gt;some1 -->
<g id="edge5" class="edge"><title>Group By&#45;&gt;some1</title>
<path fill="none" stroke="black" d="M434.101,-142C434.101,-142 459.951,-142 459.951,-142"/>
<polygon fill="black" stroke="black" points="459.951,-145.5 469.951,-142 459.951,-138.5 459.951,-145.5"/>
</g>
<!-- res1 -->
<g id="node7" class="node"><title>res1</title>
<path fill="none" stroke="black" d="M608,-160C608,-160 572,-160 572,-160 566,-160 560,-154 560,-148 560,-148 560,-136 560,-136 560,-130 566,-124 572,-124 572,-124 608,-124 608,-124 614,-124 620,-130 620,-136 620,-136 620,-148 620,-148 620,-154 614,-160 608,-160"/>
<text text-anchor="middle" x="590" y="-138.3" font-family="source sans pro light" font-size="14.00">Result</text>
</g>
<!-- some1&#45;&gt;res1 -->
<g id="edge6" class="edge"><title>some1&#45;&gt;res1</title>
<path fill="none" stroke="black" d="M524.4,-142C524.4,-142 549.87,-142 549.87,-142"/>
<polygon fill="black" stroke="black" points="549.87,-145.5 559.87,-142 549.87,-138.5 549.87,-145.5"/>
</g>
<!-- some2 -->
<g id="node9" class="node"><title>some2</title>
<path fill="none" stroke="black" d="M605,-52C605,-52 575,-52 575,-52 569,-52 563,-46 563,-40 563,-40 563,-28 563,-28 563,-22 569,-16 575,-16 575,-16 605,-16 605,-16 611,-16 617,-22 617,-28 617,-28 617,-40 617,-40 617,-46 611,-52 605,-52"/>
<text text-anchor="middle" x="590" y="-30.3" font-family="source sans pro light" font-size="14.00">...</text>
</g>
<!-- Map&#45;&gt;some2 -->
<g id="edge8" class="edge"><title>Map&#45;&gt;some2</title>
<path fill="none" stroke="black" d="M524.4,-34C524.4,-34 552.796,-34 552.796,-34"/>
<polygon fill="black" stroke="black" points="552.796,-37.5001 562.796,-34 552.796,-30.5001 552.796,-37.5001"/>
</g>
<!-- res2 -->
<g id="node10" class="node"><title>res2</title>
<path fill="none" stroke="black" d="M704,-52C704,-52 668,-52 668,-52 662,-52 656,-46 656,-40 656,-40 656,-28 656,-28 656,-22 662,-16 668,-16 668,-16 704,-16 704,-16 710,-16 716,-22 716,-28 716,-28 716,-40 716,-40 716,-46 710,-52 704,-52"/>
<text text-anchor="middle" x="686" y="-30.3" font-family="source sans pro light" font-size="14.00">Result</text>
</g>
<!-- some2&#45;&gt;res2 -->
<g id="edge9" class="edge"><title>some2&#45;&gt;res2</title>
<path fill="none" stroke="black" d="M617.253,-34C617.253,-34 645.983,-34 645.983,-34"/>
<polygon fill="black" stroke="black" points="645.983,-37.5001 655.983,-34 645.983,-30.5001 645.983,-37.5001"/>
</g>
</g>
</svg>
