<?xml version="1.0" encoding="UTF-8" standalone="no"?>
<!DOCTYPE svg PUBLIC "-//W3C//DTD SVG 1.1//EN"
 "http://www.w3.org/Graphics/SVG/1.1/DTD/svg11.dtd">
<!-- Generated by graphviz version 2.38.0 (20140413.2041)
 -->
<!-- Title: G Pages: 1 -->
<svg width="615pt" height="99pt"
 viewBox="0.00 0.00 615.00 99.00" xmlns="http://www.w3.org/2000/svg" xmlns:xlink="http://www.w3.org/1999/xlink">
<g id="graph0" class="graph" transform="scale(1 1) rotate(0) translate(4 95)">
<title>G</title>
<polygon fill="white" stroke="none" points="-4,4 -4,-95 611,-95 611,4 -4,4"/>
<g id="clust1" class="cluster"><title>cluster_2</title>
<polygon fill="none" stroke="black" stroke-dasharray="1,5" points="8,-8 8,-83 599,-83 599,-8 8,-8"/>
<text text-anchor="middle" x="303.5" y="-67.8" font-family="source sans pro bold" font-size="14.00">Query 2</text>
</g>
<!-- External Input -->
<g id="node1" class="node"><title>External Input</title>
<path fill="none" stroke="black" d="M121,-52C121,-52 28,-52 28,-52 22,-52 16,-46 16,-40 16,-40 16,-28 16,-28 16,-22 22,-16 28,-16 28,-16 121,-16 121,-16 127,-16 133,-22 133,-28 133,-28 133,-40 133,-40 133,-46 127,-52 121,-52"/>
<text text-anchor="middle" x="74.5" y="-30.3" font-family="source sans pro light" font-size="14.00">External Input</text>
</g>
<!-- Parse -->
<g id="node2" class="node"><title>Parse</title>
<path fill="none" stroke="black" d="M213,-52C213,-52 181,-52 181,-52 175,-52 169,-46 169,-40 169,-40 169,-28 169,-28 169,-22 175,-16 181,-16 181,-16 213,-16 213,-16 219,-16 225,-22 225,-28 225,-28 225,-40 225,-40 225,-46 219,-52 213,-52"/>
<text text-anchor="middle" x="197" y="-30.3" font-family="source sans pro light" font-size="14.00">Parse</text>
</g>
<!-- External Input&#45;&gt;Parse -->
<g id="edge1" class="edge"><title>External Input&#45;&gt;Parse</title>
<path fill="none" stroke="black" d="M133.279,-34C141.931,-34 150.651,-34 158.723,-34"/>
<polygon fill="black" stroke="black" points="158.902,-37.5001 168.902,-34 158.902,-30.5001 158.902,-37.5001"/>
</g>
<!-- Filter -->
<g id="node3" class="node"><title>Filter</title>
<path fill="none" stroke="black" d="M303,-52C303,-52 273,-52 273,-52 267,-52 261,-46 261,-40 261,-40 261,-28 261,-28 261,-22 267,-16 273,-16 273,-16 303,-16 303,-16 309,-16 315,-22 315,-28 315,-28 315,-40 315,-40 315,-46 309,-52 303,-52"/>
<text text-anchor="middle" x="288" y="-30.3" font-family="source sans pro light" font-size="14.00">Filter</text>
</g>
<!-- Parse&#45;&gt;Filter -->
<g id="edge2" class="edge"><title>Parse&#45;&gt;Filter</title>
<path fill="none" stroke="black" d="M225.187,-34C233.255,-34 242.222,-34 250.768,-34"/>
<polygon fill="black" stroke="black" points="250.895,-37.5001 260.895,-34 250.895,-30.5001 250.895,-37.5001"/>
</g>
<!-- Map -->
<g id="node4" class="node"><title>Map</title>
<path fill="none" stroke="black" d="M393,-52C393,-52 363,-52 363,-52 357,-52 351,-46 351,-40 351,-40 351,-28 351,-28 351,-22 357,-16 363,-16 363,-16 393,-16 393,-16 399,-16 405,-22 405,-28 405,-28 405,-40 405,-40 405,-46 399,-52 393,-52"/>
<text text-anchor="middle" x="378" y="-30.3" font-family="source sans pro light" font-size="14.00">Map</text>
</g>
<!-- Filter&#45;&gt;Map -->
<g id="edge3" class="edge"><title>Filter&#45;&gt;Map</title>
<path fill="none" stroke="black" d="M315.403,-34C323.393,-34 332.311,-34 340.824,-34"/>
<polygon fill="black" stroke="black" points="340.919,-37.5001 350.919,-34 340.919,-30.5001 340.919,-37.5001"/>
</g>
<!-- ... -->
<g id="node5" class="node"><title>...</title>
<path fill="none" stroke="black" d="M483,-52C483,-52 453,-52 453,-52 447,-52 441,-46 441,-40 441,-40 441,-28 441,-28 441,-22 447,-16 453,-16 453,-16 483,-16 483,-16 489,-16 495,-22 495,-28 495,-28 495,-40 495,-40 495,-46 489,-52 483,-52"/>
<text text-anchor="middle" x="468" y="-30.3" font-family="source sans pro light" font-size="14.00">...</text>
</g>
<!-- Map&#45;&gt;... -->
<g id="edge4" class="edge"><title>Map&#45;&gt;...</title>
<path fill="none" stroke="black" d="M405.403,-34C413.393,-34 422.311,-34 430.824,-34"/>
<polygon fill="black" stroke="black" points="430.919,-37.5001 440.919,-34 430.919,-30.5001 430.919,-37.5001"/>
</g>
<!-- Result -->
<g id="node6" class="node"><title>Result</title>
<path fill="none" stroke="black" d="M579,-52C579,-52 543,-52 543,-52 537,-52 531,-46 531,-40 531,-40 531,-28 531,-28 531,-22 537,-16 543,-16 543,-16 579,-16 579,-16 585,-16 591,-22 591,-28 591,-28 591,-40 591,-40 591,-46 585,-52 579,-52"/>
<text text-anchor="middle" x="561" y="-30.3" font-family="source sans pro light" font-size="14.00">Result</text>
</g>
<!-- ...&#45;&gt;Result -->
<g id="edge5" class="edge"><title>...&#45;&gt;Result</title>
<path fill="none" stroke="black" d="M495.321,-34C503.232,-34 512.091,-34 520.653,-34"/>
<polygon fill="black" stroke="black" points="520.867,-37.5001 530.867,-34 520.867,-30.5001 520.867,-37.5001"/>
</g>
</g>
</svg>
