<?xml version="1.0" encoding="UTF-8" standalone="no"?>
<!DOCTYPE svg PUBLIC "-//W3C//DTD SVG 1.1//EN"
 "http://www.w3.org/Graphics/SVG/1.1/DTD/svg11.dtd">
<!-- Generated by graphviz version 2.38.0 (20140413.2041)
 -->
<!-- Title: G Pages: 1 -->
<svg width="644pt" height="99pt"
 viewBox="0.00 0.00 644.00 99.00" xmlns="http://www.w3.org/2000/svg" xmlns:xlink="http://www.w3.org/1999/xlink">
<g id="graph0" class="graph" transform="scale(1 1) rotate(0) translate(4 95)">
<title>G</title>
<polygon fill="white" stroke="none" points="-4,4 -4,-95 640,-95 640,4 -4,4"/>
<g id="clust1" class="cluster"><title>cluster_1</title>
<polygon fill="none" stroke="black" stroke-dasharray="1,5" points="8,-8 8,-83 628,-83 628,-8 8,-8"/>
<text text-anchor="middle" x="318" y="-67.8" font-family="source sans pro bold" font-size="14.00">Query 1</text>
</g>
<!-- External Input -->
<g id="node1" class="node"><title>External Input</title>
<path fill="none" stroke="black" d="M121,-52C121,-52 28,-52 28,-52 22,-52 16,-46 16,-40 16,-40 16,-28 16,-28 16,-22 22,-16 28,-16 28,-16 121,-16 121,-16 127,-16 133,-22 133,-28 133,-28 133,-40 133,-40 133,-46 127,-52 121,-52"/>
<text text-anchor="middle" x="74.5" y="-30.3" font-family="source sans pro light" font-size="14.00">External Input</text>
</g>
<!-- Parse -->
<g id="node2" class="node"><title>Parse</title>
<path fill="none" stroke="black" d="M213,-52C213,-52 181,-52 181,-52 175,-52 169,-46 169,-40 169,-40 169,-28 169,-28 169,-22 175,-16 181,-16 181,-16 213,-16 213,-16 219,-16 225,-22 225,-28 225,-28 225,-40 225,-40 225,-46 219,-52 213,-52"/>
<text text-anchor="middle" x="197" y="-30.3" font-family="source sans pro light" font-size="14.00">Parse</text>
</g>
<!-- External Input&#45;&gt;Parse -->
<g id="edge1" class="edge"><title>External Input&#45;&gt;Parse</title>
<path fill="none" stroke="black" d="M133.279,-34C141.931,-34 150.651,-34 158.723,-34"/>
<polygon fill="black" stroke="black" points="158.902,-37.5001 168.902,-34 158.902,-30.5001 158.902,-37.5001"/>
</g>
<!-- Filter -->
<g id="node3" class="node"><title>Filter</title>
<path fill="none" stroke="black" d="M303,-52C303,-52 273,-52 273,-52 267,-52 261,-46 261,-40 261,-40 261,-28 261,-28 261,-22 267,-16 273,-16 273,-16 303,-16 303,-16 309,-16 315,-22 315,-28 315,-28 315,-40 315,-40 315,-46 309,-52 303,-52"/>
<text text-anchor="middle" x="288" y="-30.3" font-family="source sans pro light" font-size="14.00">Filter</text>
</g>
<!-- Parse&#45;&gt;Filter -->
<g id="edge2" class="edge"><title>Parse&#45;&gt;Filter</title>
<path fill="none" stroke="black" d="M225.187,-34C233.255,-34 242.222,-34 250.768,-34"/>
<polygon fill="black" stroke="black" points="250.895,-37.5001 260.895,-34 250.895,-30.5001 250.895,-37.5001"/>
</g>
<!-- Group By -->
<g id="node4" class="node"><title>Group By</title>
<path fill="none" stroke="black" d="M422,-52C422,-52 363,-52 363,-52 357,-52 351,-46 351,-40 351,-40 351,-28 351,-28 351,-22 357,-16 363,-16 363,-16 422,-16 422,-16 428,-16 434,-22 434,-28 434,-28 434,-40 434,-40 434,-46 428,-52 422,-52"/>
<text text-anchor="middle" x="392.5" y="-30.3" font-family="source sans pro light" font-size="14.00">Group By</text>
</g>
<!-- Filter&#45;&gt;Group By -->
<g id="edge3" class="edge"><title>Filter&#45;&gt;Group By</title>
<path fill="none" stroke="black" d="M315.13,-34C322.889,-34 331.669,-34 340.44,-34"/>
<polygon fill="black" stroke="black" points="340.673,-37.5001 350.673,-34 340.673,-30.5001 340.673,-37.5001"/>
</g>
<!-- ... -->
<g id="node5" class="node"><title>...</title>
<path fill="none" stroke="black" d="M512,-52C512,-52 482,-52 482,-52 476,-52 470,-46 470,-40 470,-40 470,-28 470,-28 470,-22 476,-16 482,-16 482,-16 512,-16 512,-16 518,-16 524,-22 524,-28 524,-28 524,-40 524,-40 524,-46 518,-52 512,-52"/>
<text text-anchor="middle" x="497" y="-30.3" font-family="source sans pro light" font-size="14.00">...</text>
</g>
<!-- Group By&#45;&gt;... -->
<g id="edge4" class="edge"><title>Group By&#45;&gt;...</title>
<path fill="none" stroke="black" d="M434.011,-34C442.509,-34 451.42,-34 459.752,-34"/>
<polygon fill="black" stroke="black" points="459.92,-37.5001 469.919,-34 459.919,-30.5001 459.92,-37.5001"/>
</g>
<!-- Result -->
<g id="node6" class="node"><title>Result</title>
<path fill="none" stroke="black" d="M608,-52C608,-52 572,-52 572,-52 566,-52 560,-46 560,-40 560,-40 560,-28 560,-28 560,-22 566,-16 572,-16 572,-16 608,-16 608,-16 614,-16 620,-22 620,-28 620,-28 620,-40 620,-40 620,-46 614,-52 608,-52"/>
<text text-anchor="middle" x="590" y="-30.3" font-family="source sans pro light" font-size="14.00">Result</text>
</g>
<!-- ...&#45;&gt;Result -->
<g id="edge5" class="edge"><title>...&#45;&gt;Result</title>
<path fill="none" stroke="black" d="M524.321,-34C532.232,-34 541.091,-34 549.653,-34"/>
<polygon fill="black" stroke="black" points="549.867,-37.5001 559.867,-34 549.867,-30.5001 549.867,-37.5001"/>
</g>
</g>
</svg>
