<?xml version="1.0" encoding="UTF-8" standalone="no"?>
<svg
   xmlns:dc="http://purl.org/dc/elements/1.1/"
   xmlns:cc="http://creativecommons.org/ns#"
   xmlns:rdf="http://www.w3.org/1999/02/22-rdf-syntax-ns#"
   xmlns:svg="http://www.w3.org/2000/svg"
   xmlns="http://www.w3.org/2000/svg"
   xmlns:sodipodi="http://sodipodi.sourceforge.net/DTD/sodipodi-0.dtd"
   xmlns:inkscape="http://www.inkscape.org/namespaces/inkscape"
   viewBox="0 0 491.33798 280.93668"
   height="280.93668"
   width="491.33798"
   xml:space="preserve"
   id="svg2"
   version="1.1"
   sodipodi:docname="reconstruction-transactions.svg"
   inkscape:version="0.92.2 5c3e80d, 2017-08-06"><sodipodi:namedview
     pagecolor="#ffffff"
     bordercolor="#666666"
     borderopacity="1"
     objecttolerance="10"
     gridtolerance="10"
     guidetolerance="10"
     inkscape:pageopacity="0"
     inkscape:pageshadow="2"
     inkscape:window-width="1920"
     inkscape:window-height="1103"
     id="namedview112"
     showgrid="false"
     inkscape:zoom="2.0378298"
     inkscape:cx="272.49583"
     inkscape:cy="111.21502"
     inkscape:window-x="0"
     inkscape:window-y="27"
     inkscape:window-maximized="1"
     inkscape:current-layer="g10" /><metadata
     id="metadata8"><rdf:RDF><cc:Work
         rdf:about=""><dc:format>image/svg+xml</dc:format><dc:type
           rdf:resource="http://purl.org/dc/dcmitype/StillImage" /><dc:title /></cc:Work></rdf:RDF></metadata><defs
     id="defs6"><clipPath
       id="clipPath194"
       clipPathUnits="userSpaceOnUse"><path
         id="path192"
         d="M 0,0 H 369 V 211 H 0 Z" /></clipPath></defs><g
     transform="matrix(1.3333333,0,0,-1.3333333,0,280.93669)"
     id="g10"><g
       id="g12"><path
         id="path14"
         style="fill:#f2f2f2;fill-opacity:1;fill-rule:evenodd;stroke:none"
         d="m 0,206.453 c 0,2.351 1.902,4.25 4.254,4.25 h 360 c 2.348,0 4.25,-1.899 4.25,-4.25 v -17.012 c 0,-2.348 -1.902,-4.25 -4.25,-4.25 h -360 c -2.352,0 -4.254,1.902 -4.254,4.25 z" /><text
         id="text18"
         style="font-variant:normal;font-weight:normal;font-size:13.97999954px;font-family:'Times New Roman';-inkscape-font-specification:TimesNewRomanPSMT;writing-mode:lr-tb;fill:#000000;fill-opacity:1;fill-rule:nonzero;stroke:none"
         transform="matrix(1,0,0,-1,33.0635,193.48251)"><tspan
           id="tspan16">Message</tspan></text>
<path
         id="path20"
         style="fill:#c00000;fill-opacity:1;fill-rule:evenodd;stroke:none"
         d="m 12.699,198.581 c 0,3.141 2.539,5.672 5.668,5.672 3.133,0 5.668,-2.531 5.668,-5.672 0,-3.128 -2.535,-5.668 -5.668,-5.668 -3.129,0 -5.668,2.54 -5.668,5.668 z" /><path
         id="path22"
         style="fill:none;stroke:#d9d9d9;stroke-width:1;stroke-linecap:butt;stroke-linejoin:round;stroke-miterlimit:10;stroke-dasharray:1, 1;stroke-dashoffset:0;stroke-opacity:1"
         d="M 50.723,158.253 V 23.613" /><path
         id="path24"
         style="fill:none;stroke:#d9d9d9;stroke-width:1;stroke-linecap:butt;stroke-linejoin:round;stroke-miterlimit:10;stroke-dasharray:1, 1;stroke-dashoffset:0;stroke-opacity:1"
         d="M 98.695,158.253 V 23.613" /><path
         id="path26"
         style="fill:none;stroke:#d9d9d9;stroke-width:1;stroke-linecap:butt;stroke-linejoin:round;stroke-miterlimit:10;stroke-dasharray:1, 1;stroke-dashoffset:0;stroke-opacity:1"
         d="M 362.535,158.253 V 23.613" /><path
         id="path28"
         style="fill:none;stroke:#d9d9d9;stroke-width:1;stroke-linecap:butt;stroke-linejoin:round;stroke-miterlimit:10;stroke-dasharray:1, 1;stroke-dashoffset:0;stroke-opacity:1"
         d="M 146.664,158.253 V 23.613" /><path
         id="path30"
         style="fill:none;stroke:#d9d9d9;stroke-width:1;stroke-linecap:butt;stroke-linejoin:round;stroke-miterlimit:10;stroke-dasharray:1, 1;stroke-dashoffset:0;stroke-opacity:1"
         d="M 194.633,158.253 V 23.613" /><path
         id="path32"
         style="fill:none;stroke:#d9d9d9;stroke-width:1;stroke-linecap:butt;stroke-linejoin:round;stroke-miterlimit:10;stroke-dasharray:1, 1;stroke-dashoffset:0;stroke-opacity:1"
         d="M 170.652,158.253 V 23.613" /><path
         id="path34"
         style="fill:none;stroke:#d9d9d9;stroke-width:1;stroke-linecap:butt;stroke-linejoin:round;stroke-miterlimit:10;stroke-dasharray:1, 1;stroke-dashoffset:0;stroke-opacity:1"
         d="M 218.625,158.253 V 23.613" /><path
         id="path36"
         style="fill:none;stroke:#d9d9d9;stroke-width:1;stroke-linecap:butt;stroke-linejoin:round;stroke-miterlimit:10;stroke-dasharray:1, 1;stroke-dashoffset:0;stroke-opacity:1"
         d="M 242.602,158.253 V 23.613" /><path
         id="path38"
         style="fill:none;stroke:#d9d9d9;stroke-width:1;stroke-linecap:butt;stroke-linejoin:round;stroke-miterlimit:10;stroke-dasharray:1, 1;stroke-dashoffset:0;stroke-opacity:1"
         d="M 266.594,158.253 V 23.613" /><path
         id="path40"
         style="fill:none;stroke:#d9d9d9;stroke-width:1;stroke-linecap:butt;stroke-linejoin:round;stroke-miterlimit:10;stroke-dasharray:1, 1;stroke-dashoffset:0;stroke-opacity:1"
         d="M 314.563,158.253 V 23.613" /><path
         id="path42"
         style="fill:none;stroke:#d9d9d9;stroke-width:1;stroke-linecap:butt;stroke-linejoin:round;stroke-miterlimit:10;stroke-dasharray:1, 1;stroke-dashoffset:0;stroke-opacity:1"
         d="M 122.672,158.253 V 23.613" /><path
         id="path44"
         style="fill:none;stroke:#d9d9d9;stroke-width:1;stroke-linecap:butt;stroke-linejoin:round;stroke-miterlimit:10;stroke-dasharray:1, 1;stroke-dashoffset:0;stroke-opacity:1"
         d="M 74.707,158.253 V 23.613" /><path
         id="path46"
         style="fill:none;stroke:#d9d9d9;stroke-width:1;stroke-linecap:butt;stroke-linejoin:round;stroke-miterlimit:10;stroke-dasharray:1, 1;stroke-dashoffset:0;stroke-opacity:1"
         d="M 290.574,158.253 V 23.613" /><path
         id="path48"
         style="fill:none;stroke:#d9d9d9;stroke-width:1;stroke-linecap:butt;stroke-linejoin:round;stroke-miterlimit:10;stroke-dasharray:1, 1;stroke-dashoffset:0;stroke-opacity:1"
         d="M 338.543,158.253 V 23.613" /><path
         id="path50"
         style="fill:none;stroke:#000000;stroke-width:2.25;stroke-linecap:butt;stroke-linejoin:round;stroke-miterlimit:10;stroke-dasharray:none;stroke-opacity:1"
         d="M 50.723,132.734 H 362.535" /><text
         id="text54"
         style="font-variant:normal;font-weight:normal;font-size:18px;font-family:'Times New Roman';-inkscape-font-specification:TimesNewRomanPSMT;writing-mode:lr-tb;fill:#000000;fill-opacity:1;fill-rule:nonzero;stroke:none"
         transform="matrix(1,0,0,-1,11.5235,112.10251)"><tspan
           id="tspan52"
           y="0"
           x="0">A</tspan></text>
<path
         id="path56"
         style="fill:none;stroke:#000000;stroke-width:2.25;stroke-linecap:butt;stroke-linejoin:round;stroke-miterlimit:10;stroke-dasharray:none;stroke-opacity:1"
         d="M 50.723,104.292 H 362.535" /><path
         id="path58"
         style="fill:none;stroke:#000000;stroke-width:2.25;stroke-linecap:butt;stroke-linejoin:round;stroke-miterlimit:10;stroke-dasharray:none;stroke-opacity:1"
         d="M 50.723,73.933 H 362.535" /><text
         id="text62"
         style="font-variant:normal;font-weight:normal;font-size:18px;font-family:'Times New Roman';-inkscape-font-specification:TimesNewRomanPSMT;writing-mode:lr-tb;fill:#000000;fill-opacity:1;fill-rule:nonzero;stroke:none"
         transform="matrix(1,0,0,-1,12.5235,52.562515)"><tspan
           id="tspan60"
           y="0"
           x="0">B</tspan></text>
<path
         id="path64"
         style="fill:#9dc3e6;fill-opacity:1;fill-rule:evenodd;stroke:#2e75b6;stroke-width:1;stroke-linecap:butt;stroke-linejoin:round;stroke-miterlimit:10;stroke-dasharray:none;stroke-opacity:1"
         d="M 69.398,143.363 H 250.816 V 122.101 H 69.398 Z" /><text
         id="text68"
         style="font-variant:normal;font-weight:normal;font-size:10.02000046px;font-family:'Times New Roman';-inkscape-font-specification:TimesNewRomanPSMT;writing-mode:lr-tb;fill:#000000;fill-opacity:1;fill-rule:nonzero;stroke:none"
         transform="matrix(1,0,0,-1,157.5635,129.06251)"><tspan
           id="tspan66"
           y="0"
           x="0">1</tspan></text>
<path
         id="path70"
         style="fill:#c00000;fill-opacity:1;fill-rule:evenodd;stroke:none"
         d="m 63.727,132.734 c 0,3.129 2.539,5.668 5.671,5.668 3.129,0 5.668,-2.539 5.668,-5.668 0,-3.133 -2.539,-5.672 -5.668,-5.672 -3.132,0 -5.671,2.539 -5.671,5.672 z" /><path
         id="path72"
         style="fill:#c00000;fill-opacity:1;fill-rule:evenodd;stroke:none"
         d="m 245.164,132.734 c 0,3.129 2.539,5.668 5.668,5.668 3.133,0 5.672,-2.539 5.672,-5.668 0,-3.133 -2.539,-5.672 -5.672,-5.672 -3.129,0 -5.668,2.539 -5.668,5.672 z" /><path
         id="path74"
         style="fill:#9dc3e6;fill-opacity:1;fill-rule:evenodd;stroke:#2e75b6;stroke-width:1;stroke-linecap:butt;stroke-linejoin:round;stroke-miterlimit:10;stroke-dasharray:none;stroke-opacity:1"
         d="m 270.684,143.363 h 62.363 v -21.262 h -62.363 z" /><text
         id="text78"
         style="font-variant:normal;font-weight:normal;font-size:10.02000046px;font-family:'Times New Roman';-inkscape-font-specification:TimesNewRomanPSMT;writing-mode:lr-tb;fill:#000000;fill-opacity:1;fill-rule:nonzero;stroke:none"
         transform="matrix(1,0,0,-1,299.3635,129.06251)"><tspan
           id="tspan76"
           y="0"
           x="0">2</tspan></text>
<path
         id="path80"
         style="fill:#c00000;fill-opacity:1;fill-rule:evenodd;stroke:none"
         d="m 265.012,132.734 c 0,3.129 2.543,5.668 5.672,5.668 3.129,0 5.668,-2.539 5.668,-5.668 0,-3.133 -2.539,-5.672 -5.668,-5.672 -3.129,0 -5.672,2.539 -5.672,5.672 z" /><path
         id="path82"
         style="fill:#c00000;fill-opacity:1;fill-rule:evenodd;stroke:none"
         d="m 327.383,132.683 c 0,3.141 2.531,5.668 5.672,5.668 3.129,0 5.668,-2.527 5.668,-5.668 0,-3.129 -2.539,-5.66 -5.668,-5.66 -3.141,0 -5.672,2.531 -5.672,5.66 z" /><path
         id="path84"
         style="fill:#9dc3e6;fill-opacity:1;fill-rule:evenodd;stroke:#2e75b6;stroke-width:1;stroke-linecap:butt;stroke-linejoin:round;stroke-miterlimit:10;stroke-dasharray:none;stroke-opacity:1"
         d="m 75.066,114.921 h 34.016 V 93.663 H 75.066 Z" /><text
         id="text88"
         style="font-variant:normal;font-weight:normal;font-size:10.02000046px;font-family:'Times New Roman';-inkscape-font-specification:TimesNewRomanPSMT;writing-mode:lr-tb;fill:#000000;fill-opacity:1;fill-rule:nonzero;stroke:none"
         transform="matrix(1,0,0,-1,85.3435,100.62251)"><tspan
           id="tspan86"
           y="0"
           x="0 5.04006 8.3767204">1-1</tspan></text>
<path
         id="path90"
         style="fill:#c00000;fill-opacity:1;fill-rule:evenodd;stroke:none"
         d="m 69.398,104.292 c 0,3.129 2.536,5.672 5.668,5.672 3.133,0 5.672,-2.543 5.672,-5.672 0,-3.129 -2.539,-5.668 -5.672,-5.668 -3.132,0 -5.668,2.539 -5.668,5.668 z" /><path
         id="path92"
         style="fill:#c00000;fill-opacity:1;fill-rule:evenodd;stroke:none"
         d="m 103.414,104.292 c 0,3.129 2.539,5.672 5.668,5.672 3.133,0 5.672,-2.543 5.672,-5.672 0,-3.129 -2.539,-5.668 -5.672,-5.668 -3.129,0 -5.668,2.539 -5.668,5.668 z" /><path
         id="path94"
         style="fill:#9dc3e6;fill-opacity:1;fill-rule:evenodd;stroke:#2e75b6;stroke-width:1;stroke-linecap:butt;stroke-linejoin:round;stroke-miterlimit:10;stroke-dasharray:none;stroke-opacity:1"
         d="m 137.434,114.921 h 28.348 V 93.663 h -28.348 z" /><text
         id="text98"
         style="font-variant:normal;font-weight:normal;font-size:10.02000046px;font-family:'Times New Roman';-inkscape-font-specification:TimesNewRomanPSMT;writing-mode:lr-tb;fill:#000000;fill-opacity:1;fill-rule:nonzero;stroke:none"
         transform="matrix(1,0,0,-1,144.9035,100.62251)"><tspan
           id="tspan96"
           y="0"
           x="0 5.04006 8.3767204">1-2</tspan></text>
<path
         id="path100"
         style="fill:#c00000;fill-opacity:1;fill-rule:evenodd;stroke:none"
         d="m 131.762,104.292 c 0,3.129 2.543,5.672 5.672,5.672 3.129,0 5.668,-2.543 5.668,-5.672 0,-3.129 -2.539,-5.668 -5.668,-5.668 -3.129,0 -5.672,2.539 -5.672,5.668 z" /><path
         id="path102"
         style="fill:#c00000;fill-opacity:1;fill-rule:evenodd;stroke:none"
         d="m 160.113,104.292 c 0,3.129 2.539,5.672 5.672,5.672 3.129,0 5.668,-2.543 5.668,-5.672 0,-3.129 -2.539,-5.668 -5.668,-5.668 -3.133,0 -5.672,2.539 -5.672,5.668 z" /><path
         id="path104"
         style="fill:none;stroke:#000000;stroke-width:1;stroke-linecap:butt;stroke-linejoin:round;stroke-miterlimit:10;stroke-dasharray:none;stroke-opacity:1"
         d="m 46.809,93.054 c -3.184,0 -5.762,0.219 -5.762,0.477 v 50.07 c 0,0.262 2.578,0.48 5.762,0.48" /><path
         id="path106"
         style="fill:#c5e0b4;fill-opacity:1;fill-rule:evenodd;stroke:#548235;stroke-width:1;stroke-linecap:butt;stroke-linejoin:round;stroke-miterlimit:10;stroke-dasharray:none;stroke-opacity:1"
         d="M 52.387,84.542 H 114.75 V 63.28 H 52.387 Z" /><text
         id="text110"
         style="font-variant:normal;font-weight:normal;font-size:10.02000046px;font-family:'Times New Roman';-inkscape-font-specification:TimesNewRomanPSMT;writing-mode:lr-tb;fill:#000000;fill-opacity:1;fill-rule:nonzero;stroke:none"
         transform="matrix(1,0,0,-1,81.0435,70.242515)"><tspan
           id="tspan108"
           y="0"
           x="0">1</tspan></text>
<path
         id="path112"
         style="fill:#c00000;fill-opacity:1;fill-rule:evenodd;stroke:none"
         d="m 46.719,73.913 c 0,3.129 2.539,5.668 5.668,5.668 3.133,0 5.668,-2.539 5.668,-5.668 0,-3.132 -2.535,-5.671 -5.668,-5.671 -3.129,0 -5.668,2.539 -5.668,5.671 z" /><path
         id="path114"
         style="fill:#c00000;fill-opacity:1;fill-rule:evenodd;stroke:none"
         d="m 109.082,73.984 c 0,3.129 2.543,5.668 5.672,5.668 3.129,0 5.668,-2.539 5.668,-5.668 0,-3.133 -2.539,-5.672 -5.668,-5.672 -3.129,0 -5.672,2.539 -5.672,5.672 z" /><path
         id="path116"
         style="fill:#9dc3e6;fill-opacity:1;fill-rule:evenodd;stroke:#2e75b6;stroke-width:1;stroke-linecap:butt;stroke-linejoin:round;stroke-miterlimit:10;stroke-dasharray:none;stroke-opacity:1"
         d="m 182.793,114.921 h 62.363 V 93.663 h -62.363 z" /><text
         id="text120"
         style="font-variant:normal;font-weight:normal;font-size:10.02000046px;font-family:'Times New Roman';-inkscape-font-specification:TimesNewRomanPSMT;writing-mode:lr-tb;fill:#000000;fill-opacity:1;fill-rule:nonzero;stroke:none"
         transform="matrix(1,0,0,-1,207.2635,100.62251)"><tspan
           id="tspan118"
           y="0"
           x="0 5.04006 8.3767204">1-3</tspan></text>
<path
         id="path122"
         style="fill:#c00000;fill-opacity:1;fill-rule:evenodd;stroke:none"
         d="m 177.125,104.292 c 0,3.129 2.539,5.672 5.668,5.672 3.129,0 5.672,-2.543 5.672,-5.672 0,-3.129 -2.543,-5.668 -5.672,-5.668 -3.129,0 -5.668,2.539 -5.668,5.668 z" /><path
         id="path124"
         style="fill:#c00000;fill-opacity:1;fill-rule:evenodd;stroke:none"
         d="m 239.492,104.292 c 0,3.129 2.543,5.672 5.672,5.672 3.129,0 5.668,-2.543 5.668,-5.672 0,-3.129 -2.539,-5.668 -5.668,-5.668 -3.129,0 -5.672,2.539 -5.672,5.668 z" /><path
         id="path126"
         style="fill:none;stroke:#000000;stroke-width:2.25;stroke-linecap:butt;stroke-linejoin:round;stroke-miterlimit:10;stroke-dasharray:none;stroke-opacity:1"
         d="M 50.723,44.144 H 362.535" /><path
         id="path128"
         style="fill:none;stroke:#000000;stroke-width:1;stroke-linecap:butt;stroke-linejoin:round;stroke-miterlimit:10;stroke-dasharray:none;stroke-opacity:1"
         d="m 46.809,33.523 c -3.184,0 -5.762,0.211 -5.762,0.48 v 50.059 c 0,0.269 2.578,0.48 5.762,0.48" /><path
         id="path130"
         style="fill:#c5e0b4;fill-opacity:1;fill-rule:evenodd;stroke:#548235;stroke-width:1;stroke-linecap:butt;stroke-linejoin:round;stroke-miterlimit:10;stroke-dasharray:none;stroke-opacity:1"
         d="m 72.25,54.773 h 34.016 V 33.511 H 72.25 Z" /><text
         id="text134"
         style="font-variant:normal;font-weight:normal;font-size:10.02000046px;font-family:'Times New Roman';-inkscape-font-specification:TimesNewRomanPSMT;writing-mode:lr-tb;fill:#000000;fill-opacity:1;fill-rule:nonzero;stroke:none"
         transform="matrix(1,0,0,-1,82.5235,40.462515)"><tspan
           id="tspan132"
           y="0"
           x="0 5.04006 8.3767204">1-1</tspan></text>
<path
         id="path136"
         style="fill:#c00000;fill-opacity:1;fill-rule:evenodd;stroke:none"
         d="m 66.582,44.144 c 0,3.129 2.535,5.668 5.668,5.668 3.129,0 5.668,-2.539 5.668,-5.668 0,-3.133 -2.539,-5.672 -5.668,-5.672 -3.133,0 -5.668,2.539 -5.668,5.672 z" /><path
         id="path138"
         style="fill:#c00000;fill-opacity:1;fill-rule:evenodd;stroke:none"
         d="m 100.582,44.144 c 0,3.129 2.543,5.668 5.672,5.668 3.129,0 5.668,-2.539 5.668,-5.668 0,-3.133 -2.539,-5.672 -5.668,-5.672 -3.129,0 -5.672,2.539 -5.672,5.672 z" /><text
         id="text142"
         style="font-variant:normal;font-weight:normal;font-size:13.97999954px;font-family:'Times New Roman';-inkscape-font-specification:TimesNewRomanPSMT;writing-mode:lr-tb;fill:#000000;fill-opacity:1;fill-rule:nonzero;stroke:none"
         transform="matrix(1,0,0,-1,10.3835,162.42251)"><tspan
           id="tspan140"
           y="0"
           x="0 9.3106804 13.18314 17.055599 23.248739 30.238741 289.84003 297.86453 301.737 312.54355">ClientTime</tspan></text>
<path
         id="path144"
         style="fill:#000000;fill-opacity:1;fill-rule:nonzero;stroke:none"
         d="m 337.305,167.773 h 19.09 v -0.75 h -19.09 z m 18.09,2.629 6,-3 -6,-3 z" /><path
         id="path146"
         style="fill:#fff2cc;fill-opacity:1;fill-rule:evenodd;stroke:#bf9000;stroke-width:1;stroke-linecap:butt;stroke-linejoin:round;stroke-miterlimit:10;stroke-dasharray:none;stroke-opacity:1"
         d="m 250.832,84.542 h 96.379 V 63.28 h -96.379 z" /><text
         id="text150"
         style="font-variant:normal;font-weight:normal;font-size:10.02000046px;font-family:'Times New Roman';-inkscape-font-specification:TimesNewRomanPSMT;writing-mode:lr-tb;fill:#000000;fill-opacity:1;fill-rule:nonzero;stroke:none"
         transform="matrix(1,0,0,-1,296.5035,70.242515)"><tspan
           id="tspan148"
           y="0"
           x="0">1</tspan></text>
<path
         id="path152"
         style="fill:#c00000;fill-opacity:1;fill-rule:evenodd;stroke:none"
         d="m 245.164,73.913 c 0,3.129 2.539,5.668 5.668,5.668 3.133,0 5.672,-2.539 5.672,-5.668 0,-3.132 -2.539,-5.671 -5.672,-5.671 -3.129,0 -5.668,2.539 -5.668,5.671 z" /><path
         id="path154"
         style="fill:#c00000;fill-opacity:1;fill-rule:evenodd;stroke:none"
         d="m 341.555,73.913 c 0,3.129 2.539,5.668 5.668,5.668 3.129,0 5.672,-2.539 5.672,-5.668 0,-3.132 -2.543,-5.671 -5.672,-5.671 -3.129,0 -5.668,2.539 -5.668,5.671 z" /><path
         id="path156"
         style="fill:#fff2cc;fill-opacity:1;fill-rule:evenodd;stroke:#bf9000;stroke-width:1;stroke-linecap:butt;stroke-linejoin:round;stroke-miterlimit:10;stroke-dasharray:none;stroke-opacity:1"
         d="M 259.344,54.773 H 293.36 V 33.511 h -34.016 z" /><text
         id="text160"
         style="font-variant:normal;font-weight:normal;font-size:10.02000046px;font-family:'Times New Roman';-inkscape-font-specification:TimesNewRomanPSMT;writing-mode:lr-tb;fill:#000000;fill-opacity:1;fill-rule:nonzero;stroke:none"
         transform="matrix(1,0,0,-1,269.6235,40.462515)"><tspan
           id="tspan158"
           y="0"
           x="0 5.04006 8.3767204">1-1</tspan></text>
<path
         id="path162"
         style="fill:#c00000;fill-opacity:1;fill-rule:evenodd;stroke:none"
         d="m 253.672,44.144 c 0,3.129 2.531,5.668 5.672,5.668 3.129,0 5.668,-2.539 5.668,-5.668 0,-3.133 -2.539,-5.672 -5.668,-5.672 -3.141,0 -5.672,2.539 -5.672,5.672 z" /><path
         id="path164"
         style="fill:#c00000;fill-opacity:1;fill-rule:evenodd;stroke:none"
         d="m 287.695,44.144 c 0,3.129 2.539,5.668 5.668,5.668 3.129,0 5.672,-2.539 5.672,-5.668 0,-3.133 -2.543,-5.672 -5.672,-5.672 -3.129,0 -5.668,2.539 -5.668,5.672 z" /><path
         id="path166"
         style="fill:#fff2cc;fill-opacity:1;fill-rule:evenodd;stroke:#bf9000;stroke-width:1;stroke-linecap:butt;stroke-linejoin:round;stroke-miterlimit:10;stroke-dasharray:none;stroke-opacity:1"
         d="m 307.535,54.773 h 34.016 V 33.511 h -34.016 z" /><text
         id="text170"
         style="font-variant:normal;font-weight:normal;font-size:10.02000046px;font-family:'Times New Roman';-inkscape-font-specification:TimesNewRomanPSMT;writing-mode:lr-tb;fill:#000000;fill-opacity:1;fill-rule:nonzero;stroke:none"
         transform="matrix(1,0,0,-1,317.8235,40.462515)"><tspan
           id="tspan168"
           y="0"
           x="0 5.04006 8.3767204">1-2</tspan></text>
<path
         id="path172"
         style="fill:#c00000;fill-opacity:1;fill-rule:evenodd;stroke:none"
         d="m 301.863,44.144 c 0,3.129 2.539,5.668 5.672,5.668 3.129,0 5.668,-2.539 5.668,-5.668 0,-3.133 -2.539,-5.672 -5.668,-5.672 -3.133,0 -5.672,2.539 -5.672,5.672 z" /><path
         id="path174"
         style="fill:#c00000;fill-opacity:1;fill-rule:evenodd;stroke:none"
         d="m 335.883,44.144 c 0,3.129 2.539,5.668 5.672,5.668 3.129,0 5.668,-2.539 5.668,-5.668 0,-3.133 -2.539,-5.672 -5.668,-5.672 -3.133,0 -5.672,2.539 -5.672,5.672 z" /><path
         id="path176"
         style="fill:#c5e0b4;fill-opacity:1;fill-rule:evenodd;stroke:#548235;stroke-width:1;stroke-linecap:butt;stroke-linejoin:round;stroke-miterlimit:10;stroke-dasharray:none;stroke-opacity:1"
         d="m 128.934,84.562 h 29 V 63.304 h -29 z" /><text
         id="text180"
         style="font-variant:normal;font-weight:normal;font-size:10.02000046px;font-family:'Times New Roman';-inkscape-font-specification:TimesNewRomanPSMT;writing-mode:lr-tb;fill:#000000;fill-opacity:1;fill-rule:nonzero;stroke:none"
         transform="matrix(1,0,0,-1,140.9235,70.262515)"><tspan
           id="tspan178"
           y="0"
           x="0">2</tspan></text>
<path
         id="path182"
         style="fill:#c00000;fill-opacity:1;fill-rule:evenodd;stroke:none"
         d="m 123.672,73.574 c 0,3.129 2.543,5.668 5.672,5.668 3.129,0 5.668,-2.539 5.668,-5.668 0,-3.133 -2.539,-5.672 -5.668,-5.672 -3.129,0 -5.672,2.539 -5.672,5.672 z" /><path
         id="path184"
         style="fill:#c00000;fill-opacity:1;fill-rule:evenodd;stroke:none"
         d="m 151.613,73.933 c 0,3.129 2.539,5.668 5.672,5.668 3.129,0 5.668,-2.539 5.668,-5.668 0,-3.129 -2.539,-5.672 -5.668,-5.672 -3.133,0 -5.672,2.543 -5.672,5.672 z" /></g><g
       id="g186"><g
         transform="translate(0,-0.297485)"
         id="g188"><g
           id="g190" /><g
           id="g202"><g
             id="g200"
             clip-path="url(#clipPath194)"><g
               id="g198"><path
                 id="path196"
                 style="fill:none;stroke:#7f7f7f;stroke-width:0.75;stroke-linecap:butt;stroke-linejoin:round;stroke-miterlimit:10;stroke-dasharray:2.25, 0.75;stroke-dashoffset:0;stroke-opacity:1"
                 d="m 242.324,23.219 c 0,-3.918 -0.269,-7.09 -0.59,-7.09 h -69.691 c -0.32,0 -0.59,3.172 -0.59,7.09" /></g></g></g></g></g><text
       transform="scale(1,-1)"
       style="font-variant:normal;font-weight:normal;font-size:10.02000046px;font-family:'Times New Roman';-inkscape-font-specification:TimesNewRomanPSMT;writing-mode:lr-tb;fill:#7f7f7f;fill-opacity:1;fill-rule:nonzero;stroke:none"
       id="text208"
       x="187.70351"
       y="-2.1625149"><tspan
         x="187.70351 191.04016 196.09024 200.5291 204.96796 207.70341 210.47896 215.48895 218.2645 220.99995"
         y="-2.1625149"
         id="tspan206">Inactivity</tspan></text>
<text
       transform="scale(1,-1)"
       style="font-variant:normal;font-weight:normal;font-size:13.97999954px;font-family:'Times New Roman';-inkscape-font-specification:TimesNewRomanPSMT;writing-mode:lr-tb;fill:#000000;fill-opacity:1;fill-rule:nonzero;stroke:none"
       id="text212"
       x="258.0235"
       y="-193.48251"><tspan
         id="tspan210">Span ID</tspan></text>
<text
       transform="scale(1,-1)"
       style="font-variant:normal;font-weight:normal;font-size:9px;font-family:'Times New Roman';-inkscape-font-specification:TimesNewRomanPSMT;writing-mode:lr-tb;fill:#000000;fill-opacity:1;fill-rule:nonzero;stroke:none"
       id="text216"
       x="227.2235"
       y="-195.38251"><tspan
         x="227.2235 231.7235 234.7205 239.2205 242.2175"
         y="-195.38251"
         id="tspan214">n-2-8</tspan></text>
<text
       transform="scale(1,-1)"
       style="font-variant:normal;font-weight:normal;font-size:13.97999954px;font-family:'Times New Roman';-inkscape-font-specification:TimesNewRomanPSMT;writing-mode:lr-tb;fill:#000000;fill-opacity:1;fill-rule:nonzero;stroke:none"
       id="text220"
       x="130.8835"
       y="-193.48251"><tspan
         id="tspan218">Span</tspan></text>
<path
       inkscape:connector-curvature="0"
       d="m 112.852,205.675 h 7.09 v -14.172 h -7.09 z"
       style="fill:#9dc3e6;fill-opacity:1;fill-rule:evenodd;stroke:#2e75b6;stroke-width:1;stroke-linecap:butt;stroke-linejoin:round;stroke-miterlimit:10;stroke-dasharray:none;stroke-opacity:1"
       id="path222" /></g></svg>